<svg height="512" viewBox="0 0 64 64" width="512" xmlns="http://www.w3.org/2000/svg"><g id="plan"><rect fill="#898890" height="52" rx="2" width="44" x="5" y="9"/><rect fill="#898890" height="52" rx="2" width="44" x="5" y="9"/><path d="m8 12h38v46h-38z" fill="#ebe5dd"/><path d="m42 12h4v46h-4z" fill="#c0ab91"/><rect fill="#46f8ff" height="28" rx="2" width="20" x="39" y="22"/><path d="m59 24v24a2.006 2.006 0 0 1 -2 2h-4a2.006 2.006 0 0 0 2-2v-24a2.006 2.006 0 0 0 -2-2h4a2.006 2.006 0 0 1 2 2z" fill="#00e7f0"/><path d="m36 7v2h-5v-4h3a2.006 2.006 0 0 1 2 2z" fill="#57a4ff"/><g fill="#ffde55"><path d="m32 50v2h-6v-2-2h6z"/><path d="m32 40v2h-6v-4h3 3z"/><path d="m32 30v2h-3-3v-2-2h6z"/><path d="m32 20v2h-6v-2-2h6z"/></g><path d="m31 3v9a2.006 2.006 0 0 1 -2 2h-4a2.006 2.006 0 0 1 -2-2v-9z" fill="#2488ff"/><path d="m31 3v9a2.006 2.006 0 0 1 -2 2h-4a2.006 2.006 0 0 0 2-2v-9z" fill="#005ece"/><path d="m23 5v4h-5v-2a2.006 2.006 0 0 1 2-2z" fill="#57a4ff"/><path d="m18 50v2h-6v-4h3 3z" fill="#ff7956"/><path d="m18 38v4h-3-3v-4h3z" fill="#ff7956"/><path d="m18 30v2h-3-3v-4h3 3z" fill="#ff7956"/><path d="m18 20v2h-3-3v-4h6z" fill="#ff7956"/><path d="m45 27.586-1.293-1.293-1.414 1.414 2 2a1 1 0 0 0 1.414 0l4-4-1.414-1.414z"/><path d="m45 35.586-1.293-1.293-1.414 1.414 2 2a1 1 0 0 0 1.414 0l4-4-1.414-1.414z"/><path d="m45 44.586-1.293-1.293-1.414 1.414 2 2a1 1 0 0 0 1.414 0l4-4-1.414-1.414z"/><path d="m57 21h-7v-10a3.009 3.009 0 0 0 -3-3h-10v-1a3.009 3.009 0 0 0 -3-3h-2v-1a1 1 0 0 0 -1-1h-8a1 1 0 0 0 -1 1v1h-2a3.009 3.009 0 0 0 -3 3v1h-10a3.009 3.009 0 0 0 -3 3v48a3.009 3.009 0 0 0 3 3h40a3.009 3.009 0 0 0 3-3v-8h7a3.009 3.009 0 0 0 3-3v-24a3.009 3.009 0 0 0 -3-3zm-25-15h2a1 1 0 0 1 1 1v1h-3zm0 4h15a1 1 0 0 1 1 1v10h-1v-9a1 1 0 0 0 -1-1h-14zm-8-6h6v8a1 1 0 0 1 -1 1h-4a1 1 0 0 1 -1-1zm-1.82 9a3.01 3.01 0 0 0 2.82 2h4a3.01 3.01 0 0 0 2.82-2h13.18v8h-4a3.009 3.009 0 0 0 -3 3v24a3.009 3.009 0 0 0 3 3h4v6h-36v-44zm-3.18-6a1 1 0 0 1 1-1h2v2h-3zm29 52a1 1 0 0 1 -1 1h-40a1 1 0 0 1 -1-1v-48a1 1 0 0 1 1-1h15v1h-14a1 1 0 0 0 -1 1v46a1 1 0 0 0 1 1h38a1 1 0 0 0 1-1v-7h1zm10-11a1 1 0 0 1 -1 1h-16a1 1 0 0 1 -1-1v-24a1 1 0 0 1 1-1h16a1 1 0 0 1 1 1z"/><path d="m50 27h6v2h-6z"/><path d="m50 35h6v2h-6z"/><path d="m50 44h6v2h-6z"/><path d="m26 23h6a1 1 0 0 0 1-1v-1h3v-2h-3v-1a1 1 0 0 0 -1-1h-6a1 1 0 0 0 -1 1v1h-6v-1a1 1 0 0 0 -1-1h-6a1 1 0 0 0 -1 1v4a1 1 0 0 0 1 1h2v4h-2a1 1 0 0 0 -1 1v4a1 1 0 0 0 1 1h2v4h-2a1 1 0 0 0 -1 1v4a1 1 0 0 0 1 1h2v4h-2a1 1 0 0 0 -1 1v4a1 1 0 0 0 1 1h6a1 1 0 0 0 1-1v-1h6v1a1 1 0 0 0 1 1h6a1 1 0 0 0 1-1v-1h3v-2h-3v-1a1 1 0 0 0 -1-1h-6a1 1 0 0 0 -1 1v1h-6v-1a1 1 0 0 0 -1-1h-2v-4h2a1 1 0 0 0 1-1v-4a1 1 0 0 0 -1-1h-2v-4h2a1 1 0 0 0 1-1v-1h6v1a1 1 0 0 0 1 1h2v4h-2a1 1 0 0 0 -1 1v4a1 1 0 0 0 1 1h6a1 1 0 0 0 1-1v-1h3v-2h-3v-1a1 1 0 0 0 -1-1h-2v-4h2a1 1 0 0 0 1-1v-1h3v-2h-3v-1a1 1 0 0 0 -1-1h-6a1 1 0 0 0 -1 1v1h-6v-1a1 1 0 0 0 -1-1h-2v-4h2a1 1 0 0 0 1-1v-1h6v1a1 1 0 0 0 1 1zm1-4h4v2h-4zm0 30h4v2h-4zm4-10v2h-4v-2zm-4-10h4v2h-4zm-10 20v2h-4v-2zm0-10v2h-4v-2zm0-10v2h-4v-2zm0-8h-4v-2h4z"/></g></svg>